<svg width="45" height="54" viewBox="0 0 45 54" fill="none" xmlns="http://www.w3.org/2000/svg">
<path d="M38.6832 47.4399C38.6479 48.6909 38.512 49.8715 37.8726 50.9237C36.8582 52.5926 35.4184 53.6423 33.4474 53.8512C32.6394 53.9368 31.8213 53.957 31.0057 53.957C22.8423 53.9645 14.679 53.957 6.51316 53.9645C4.43142 53.9645 2.66434 53.2924 1.35035 51.6134C0.607772 50.6644 0.225155 49.572 0.121949 48.3788C0.0992943 48.1069 0.0992943 47.8351 0.0992943 47.5632C0.0992943 36.1552 0.106846 24.7421 0.0917427 13.3316C0.0892255 11.2549 0.78146 9.52556 2.40003 8.20654C3.26344 7.50424 4.27536 7.12414 5.37538 6.99324C5.76807 6.94542 6.16579 6.93283 6.43513 6.91269C6.79257 5.8756 6.99647 4.82844 7.49488 3.94741C8.42625 2.29863 9.88875 1.28419 11.8169 1.08533C12.6476 0.999749 13.4859 0.979611 14.3216 0.977094C19.1974 0.969542 24.0758 0.979611 28.9516 0.964508C29.6464 0.964508 30.18 1.1684 30.6885 1.65423C35.0886 5.86805 39.5038 10.0668 43.9266 14.2554C44.3998 14.7035 44.6163 15.1817 44.6163 15.8488C44.5986 24.2664 44.6087 32.684 44.6037 41.1015C44.6037 44.1977 42.9499 46.4053 40.0375 47.2184C39.6196 47.3342 39.1766 47.3644 38.6857 47.4424L38.6832 47.4399ZM28.2695 3.39362C28.0706 3.38104 27.9674 3.36593 27.8667 3.36593C22.8222 3.36593 17.7802 3.36593 12.7357 3.36593C10.513 3.36593 8.99765 5.10281 9.00521 7.21476C9.04296 18.5196 9.02283 29.8219 9.02786 41.1267C9.02786 41.5194 9.03793 41.9297 9.13862 42.3048C9.61437 44.0744 10.9586 45.0359 12.9346 45.0385C21.3673 45.041 29.8024 45.0208 38.2351 45.0536C40.6189 45.0636 42.245 43.4501 42.2299 41.0738C42.1796 33.1622 42.2098 25.2481 42.2098 17.3365V16.6065C41.9027 16.6065 41.6762 16.6065 41.4521 16.6065C39.4635 16.6065 37.4749 16.6065 35.4888 16.6065C33.9609 16.6065 32.4329 16.6065 30.905 16.6065C30.2681 16.6065 29.6791 16.5058 29.158 16.0603C28.4683 15.4712 28.2745 14.7135 28.272 13.8728C28.2669 10.6281 28.2695 7.38341 28.2695 4.13872C28.2695 3.91217 28.2695 3.68562 28.2695 3.40117V3.39362ZM6.63147 9.35439C6.38982 9.34432 6.20858 9.32419 6.02734 9.3267C3.88519 9.35691 2.468 11.1643 2.47555 13.1504C2.51079 24.6868 2.49065 36.2232 2.4982 47.7621C2.4982 48.1346 2.51582 48.5223 2.61651 48.8772C3.12751 50.6745 4.40373 51.5706 6.42758 51.5706C13.5865 51.5732 20.7455 51.5706 27.9045 51.5706C29.4526 51.5706 31.0032 51.5908 32.5512 51.5656C34.9099 51.5278 36.5536 49.6928 36.2239 47.4298H35.4964C28.0228 47.4298 20.5492 47.4323 13.0781 47.4273C11.6281 47.4273 10.2613 47.1252 9.07317 46.2215C7.35643 44.9176 6.62895 43.1656 6.63147 41.0436C6.63902 30.7633 6.63399 20.483 6.63399 10.2027C6.63399 9.93587 6.63399 9.66653 6.63399 9.35187L6.63147 9.35439ZM30.6935 14.2051H40.4201C37.1452 11.0988 33.9559 8.07313 30.6935 4.97695V14.2026V14.2051Z" fill="white"/>
<path d="M25.6591 23.1714C29.1102 23.1714 32.5613 23.1764 36.0124 23.1664C36.5889 23.1664 37.0445 23.335 37.2861 23.8838C37.5781 24.5433 37.2282 25.2808 36.5259 25.4747C36.2893 25.5401 36.03 25.5527 35.7834 25.5527C29.007 25.5577 22.2307 25.5552 15.4543 25.5552C15.3486 25.5552 15.2454 25.5577 15.1397 25.5552C14.3719 25.5124 13.8685 25.0442 13.8609 24.3646C13.8534 23.6623 14.3744 23.179 15.1799 23.1764C18.3793 23.1689 21.5787 23.1739 24.7806 23.1739C25.0726 23.1739 25.3671 23.1739 25.6591 23.1739V23.1714Z" fill="white"/>
<path d="M25.5912 39.8077C22.2458 39.8077 18.8979 39.8077 15.5525 39.8077C15.3436 39.8077 15.1321 39.8152 14.9257 39.7951C14.3468 39.7397 13.9214 39.3068 13.8685 38.7354C13.8182 38.1665 14.158 37.6454 14.7168 37.5019C14.9761 37.4365 15.253 37.4289 15.5223 37.4289C22.2559 37.4264 28.9919 37.4264 35.7255 37.4264C35.8514 37.4264 35.9772 37.4214 36.1031 37.4264C36.896 37.4742 37.4246 37.9903 37.3919 38.6749C37.3617 39.3496 36.8507 39.8001 36.0678 39.8001C32.5765 39.8052 29.0826 39.8027 25.5887 39.8027L25.5912 39.8077Z" fill="white"/>
<path d="M25.6793 30.3052C29.0247 30.3052 32.37 30.3052 35.7179 30.3052C35.9671 30.3052 36.2239 30.3027 36.4681 30.3455C36.9916 30.4411 37.3768 30.9295 37.3894 31.4681C37.4019 31.9993 37.0244 32.5128 36.5083 32.6235C36.2667 32.6764 36.0099 32.6764 35.7607 32.6764C29.007 32.6789 22.2508 32.6764 15.4971 32.6764C15.2479 32.6764 14.9912 32.6764 14.7495 32.6261C14.2234 32.5178 13.8584 32.0244 13.8635 31.4782C13.8685 30.932 14.241 30.4462 14.7671 30.348C15.0113 30.3027 15.2655 30.3052 15.5173 30.3052C18.9054 30.3052 22.2936 30.3052 25.6818 30.3052H25.6793Z" fill="white"/>
</svg>
