<svg width="53" height="54" viewBox="0 0 53 54" fill="none" xmlns="http://www.w3.org/2000/svg">
<path d="M13.0631 10.4235C12.0887 3.55654 17.1312 -0.0613228 21.3702 0.000786452C25.7023 0.0667776 30.6089 3.61477 29.5803 10.4235C31.6221 10.4235 33.6484 10.4041 35.6747 10.4274C39.0131 10.4623 41.513 12.3605 42.3398 15.5359C42.5417 16.3045 42.5921 17.1274 42.6077 17.9271C42.6465 19.7282 42.6193 21.5294 42.6193 23.4315C46.144 22.9424 49.0981 23.8236 51.2758 26.6418C52.681 28.4624 53.2284 30.5469 52.9139 32.8255C52.289 37.3595 48.147 40.9192 42.6193 39.8827C42.6193 41.7305 42.6465 43.5588 42.6077 45.3871C42.5883 46.2179 42.5378 47.0757 42.3282 47.8715C41.4897 51.0352 38.9704 52.9257 35.5505 52.9916C33.5164 53.0305 31.4824 53.0188 29.4522 52.9916C27.3715 52.9645 26.3428 51.7728 26.7582 49.7503C27.2861 47.1611 26.6961 45.0184 24.4912 43.454C22.6395 42.1419 20.1668 42.1458 18.2259 43.4074C16.3471 44.6302 15.3728 46.9127 15.7842 49.1059C15.8425 49.4204 15.9085 49.7387 15.9473 50.057C16.1491 51.7068 15.3029 52.9024 13.6298 52.9528C11.1183 53.0305 8.58732 53.0615 6.09131 52.8403C2.62483 52.5336 0.210334 49.8862 0.0628244 46.4003C-0.0342213 44.1139 -0.00316666 41.8197 0.051179 39.5295C0.0938791 37.6118 1.50298 36.7112 3.59141 37.1771C6.04472 37.7244 8.71931 36.4745 9.78681 34.3006C10.866 32.1035 10.5942 30.0306 9.1269 28.1402C7.72556 26.3351 5.78464 25.7994 3.59141 26.1721C1.11868 26.5952 0.0434153 25.7373 0.0395335 23.2568C0.0395335 21.3198 0.027888 19.3828 0.0395335 17.4496C0.0705881 13.3426 2.95091 10.4623 7.06176 10.4274C9.05702 10.4119 11.0523 10.4274 13.0592 10.4274L13.0631 10.4235ZM29.5337 50.2161C31.5018 50.2161 33.3689 50.2239 35.2322 50.2161C38.2717 50.1967 39.8089 48.6634 39.8322 45.6317C39.8477 43.6326 39.8477 41.6334 39.8322 39.6304C39.8244 38.6871 40.166 37.9301 40.9463 37.3983C41.742 36.8588 42.5921 37.0257 43.4617 37.2004C45.686 37.6468 47.5609 36.9636 48.9778 35.2245C50.414 33.466 50.581 31.4397 49.6881 29.4056C48.5546 26.8242 46.1906 25.714 43.2249 26.2225C40.9618 26.6107 39.8477 25.6907 39.8322 23.4005C39.8205 21.4634 39.8516 19.5303 39.8244 17.5932C39.7817 14.744 38.1824 13.1757 35.3564 13.1641C33.2602 13.1563 31.1602 13.1874 29.064 13.1447C27.6432 13.1136 26.6766 12.1703 26.6766 10.8699C26.6766 10.3575 26.7815 9.84511 26.8746 9.34047C27.5772 5.381 23.7653 1.90288 19.8912 2.97427C16.9449 3.78945 15.2447 6.58049 15.8502 9.6122C16.3238 11.9956 15.3572 13.1602 12.8962 13.1641C10.897 13.1641 8.89399 13.1447 6.89484 13.1718C4.89182 13.2029 3.20322 14.3441 3.00525 16.2579C2.76458 18.6025 2.94702 20.9898 2.94702 23.3539C9.44521 22.1699 13.5211 27.7403 13.1951 32.0763C13.0204 34.3705 12.1935 36.3929 10.4157 37.9496C8.22631 39.8633 5.67207 40.3873 2.82669 39.8866C2.82669 42.1419 2.718 44.339 2.86162 46.5168C2.98584 48.4111 4.16592 49.8823 5.80017 50.0104C8.18749 50.1967 10.602 50.057 13.001 50.057C11.9257 43.0076 17.5776 39.2771 21.9369 39.6731C26.4631 40.0846 30.6594 44.1139 29.522 50.2123L29.5337 50.2161Z" fill="white"/>
</svg>
