<svg width="61" height="30" viewBox="0 0 61 30" fill="none" xmlns="http://www.w3.org/2000/svg">
<g clip-path="url(#clip0_12_22)">
<path d="M39.4519 16.806H31.7838L31.7882 16.9183L31.8011 17.1344L31.8068 17.2268L31.8276 17.4764L31.8328 17.5321L31.8626 17.8084C31.8632 17.8174 31.8641 17.8263 31.8655 17.8352L31.9044 18.1319C31.9931 18.7468 32.1249 19.3523 32.3013 19.9474L32.3039 19.9552L32.3955 20.2509L32.4007 20.2673L32.485 20.5184L32.5073 20.5817L32.5862 20.7989L32.6233 20.8969L32.6934 21.0785L32.7486 21.2134L32.8073 21.3535L32.8851 21.5242L32.9305 21.628L33.026 21.8322L33.0576 21.8975L33.1726 22.1297L33.1907 22.1653L33.3308 22.4312L33.3607 22.4831L39.9311 18.5182C39.6727 17.9734 39.5118 17.3944 39.4521 16.806H39.4519ZM32.1459 20.3244L32.148 20.3314L32.3955 20.2535L32.1459 20.3244Z" fill="white"/>
<path d="M41.3367 20.3283L35.9144 25.7478L35.9982 25.8251L36.2299 26.0306L36.4141 26.1867L36.4639 26.2283L36.6745 26.3979L36.7018 26.4195L36.9337 26.5974C36.9369 26.5993 36.9398 26.6015 36.9425 26.6039L37.9531 27.287L37.9894 27.309L38.1884 27.4266L38.3103 27.4961L38.426 27.5609L38.6372 27.6751L38.6665 27.6907L39.264 27.9807L42.182 20.8931C41.8857 20.7349 41.6014 20.547 41.3336 20.3276L41.3367 20.3283Z" fill="white"/>
<path d="M40.7743 19.7902L40.6057 19.5918L40.4656 19.411L40.3156 19.1987L40.1755 18.98L33.6178 22.9298L33.9556 23.4604L33.9828 23.5003L33.9844 23.5029L34.3367 23.9995L34.3445 24.0098L34.3523 24.0202L34.5116 24.2278L34.7028 24.4651L34.7438 24.5144L34.9005 24.6994L34.9695 24.7777L35.1054 24.9334L35.1825 25.0169L35.2175 25.0548L35.3213 25.1638L35.3628 25.2063L35.5444 25.3921L40.9538 19.983L40.7766 19.7936L40.7743 19.7902Z" fill="white"/>
<path d="M47.9445 20.3253L47.7637 20.4654L47.7772 20.488L51.7212 27.0347L52.2609 26.6632C52.6423 26.3817 53.012 26.0769 53.3679 25.7482L47.9658 20.3469L47.9445 20.3253Z" fill="white"/>
<path d="M51.2228 27.3465L51.2316 27.3413L51.2314 27.341L51.2228 27.3462V27.3465ZM51.2189 27.349H51.2192H51.2189Z" fill="white"/>
<path d="M51.2314 27.3386L51.2833 27.3127L51.2823 27.3109L51.2314 27.3412V27.3386ZM51.2203 27.3477L51.2229 27.3464L51.2203 27.3477Z" fill="white"/>
<path d="M51.2189 27.3491H51.2192L51.2096 27.333L51.2189 27.3491ZM51.2228 27.3465L51.2316 27.3418L51.2228 27.3465ZM51.2176 27.3491L51.215 27.3504L51.2176 27.3494V27.3491Z" fill="white"/>
<path d="M51.2177 27.3491V27.3493L51.2189 27.3485H51.2187L51.2177 27.3491Z" fill="white"/>
<path d="M51.2202 27.3477L51.2187 27.3485L51.2226 27.3459L51.2202 27.3477ZM51.2317 27.3417L51.283 27.3127L51.2317 27.3417ZM51.283 27.3127L51.282 27.3109L51.283 27.3127ZM51.2135 27.3516H51.214H51.2135Z" fill="white"/>
<path d="M51.2156 27.3508L51.2141 27.3515L51.2156 27.3508Z" fill="white"/>
<path d="M51.1481 27.0888L47.3327 20.7587L47.106 20.8851L46.8735 21.0018C46.1738 21.3346 45.4088 21.5076 44.634 21.5085C44.1295 21.5084 43.6277 21.4352 43.1443 21.2911L42.8991 21.2049L42.6542 21.118L39.7417 28.1914L39.763 28.1991L39.7853 28.2077H39.7855L39.7912 28.2103L40.3503 28.4243C41.2013 28.7246 42.0812 28.9352 42.9759 29.0527C43.0109 29.0569 43.0458 29.0616 43.0807 29.0667L43.3978 29.1012L43.4491 29.1056L43.7034 29.1268L43.7898 29.132L44.0124 29.145L44.1489 29.1502L44.3258 29.1564L44.6418 29.1603C45.3575 29.1603 46.072 29.1008 46.7778 28.9823L46.8136 28.9772L47.0378 28.9364L47.1675 28.9118L47.2985 28.8843L47.5169 28.8363L47.5564 28.8272C48.6301 28.5767 49.6674 28.19 50.643 27.6764L50.6432 27.6761L50.8326 27.5724L51.2174 27.3555L51.2112 27.3373L51.2208 27.3537L51.2332 27.3464L51.2838 27.316L51.1481 27.0888ZM41.3396 12.2536L41.5204 12.1135L41.5069 12.091L37.5631 5.54689L37.0222 5.91943C36.6408 6.20013 36.2716 6.50496 35.9164 6.83314L41.3186 12.2324L41.3396 12.2536Z" fill="white"/>
<path d="M35.5421 7.18983L35.183 7.5647C34.784 7.99665 34.4192 8.44676 34.0902 8.91892L34.043 8.98637L33.9333 9.14851L33.8217 9.3187L33.7812 9.38096C32.562 11.2965 31.8726 13.5011 31.7835 15.7699L31.7765 16.0293L31.7721 16.2888H39.4226L39.435 16.0293L39.4493 15.7699C39.5497 14.7474 39.9512 13.7778 40.603 12.9836C40.6549 12.9172 40.719 12.855 40.7774 12.7909C40.8358 12.7268 40.8895 12.6601 40.9512 12.5984L35.5421 7.18983ZM51.3274 5.29081L51.2958 5.27187L51.0926 5.15124L50.974 5.08379L50.8547 5.01737L50.6471 4.9053L50.6145 4.88818C50.1656 4.65366 49.7051 4.44715 49.2347 4.26555L49.1984 4.25154L48.8871 4.13921C48.0517 3.84735 47.1872 3.64266 46.3092 3.52748L46.2016 3.51295L46.0939 3.50101L45.8864 3.47844L45.8282 3.47326L45.581 3.4525L45.2697 3.43356L45.1571 3.42915V11.0979C45.5506 11.1386 45.9406 11.2224 46.3188 11.3508L51.9649 5.71005C51.756 5.5641 51.5428 5.42446 51.3256 5.29133L51.3274 5.29081Z" fill="white"/>
<path d="M38.1365 5.4895L38.0027 5.26717L38.1365 5.4895ZM37.999 5.26639L37.9998 5.26769L37.999 5.26639ZM44.3829 3.42575L44.1235 3.43094C43.5823 3.45273 43.0421 3.50799 42.5063 3.59775L42.4711 3.60372L42.2466 3.64445L42.1169 3.66883L41.9851 3.69633L41.7672 3.74407L41.7275 3.75289C40.6537 4.00362 39.6163 4.39054 38.6406 4.90423L37.9998 5.26587L38.0006 5.26717L41.9493 11.8229L42.1761 11.6966C42.2525 11.6556 42.3299 11.6166 42.4083 11.5796C42.9473 11.3225 43.5267 11.1601 44.1209 11.0996L44.3803 11.0789L44.6397 11.0701L44.64 3.4203C44.5533 3.42004 44.467 3.42367 44.3806 3.42549L44.3829 3.42575Z" fill="white"/>
<path d="M57.4962 15.6567L57.4837 15.4504L57.477 15.3474L57.457 15.1051L57.4518 15.0423L57.4233 14.7717L57.4207 14.75L57.4194 14.7396L57.3805 14.448C57.3802 14.4454 57.38 14.4415 57.3792 14.4389C57.291 13.8273 57.1589 13.2228 56.9838 12.6302L56.9802 12.6188L56.8951 12.343L56.8834 12.3067L56.8004 12.0592L56.777 11.9922L56.6992 11.7787L56.6603 11.6775L56.5915 11.5017L56.535 11.3631L56.4779 11.2267L56.4016 11.0528L56.3575 10.9548L56.2607 10.748L56.2306 10.6852L56.1144 10.4502L56.0975 10.4178L55.9626 10.1583C55.9608 10.1557 55.9595 10.1521 55.9574 10.1493C55.7343 9.73936 55.4899 9.34295 55.2253 8.96159L49.5785 14.6086C49.7059 14.9851 49.7906 15.3747 49.8312 15.77H57.5003L57.4962 15.6567Z" fill="white"/>
<path d="M49.8613 16.2892L49.8488 16.5487L49.8345 16.8081C49.736 17.8043 49.3512 18.7797 48.6811 19.5943C48.6292 19.6608 48.5651 19.723 48.5067 19.7871C48.4483 19.8512 48.3946 19.9179 48.3329 19.9796L53.7423 25.3887C53.8038 25.3272 53.8616 25.2636 53.9213 25.2011L54.1003 25.0135C54.5006 24.5803 54.8665 24.1263 55.1962 23.6552L55.2346 23.5997L55.3534 23.4251L55.4559 23.2681L55.5078 23.1916C56.7485 21.2433 57.4121 19.0355 57.5016 16.8078L57.5086 16.5484L57.513 16.289H49.8613V16.2892Z" fill="white"/>
<path d="M59.7837 1.14841C58.384 -0.25121 56.1146 -0.25121 54.7152 1.14841C53.5986 2.26473 53.3754 3.93363 54.0407 5.27383L46.2337 13.0806C44.8934 12.4159 43.2242 12.6387 42.1078 13.7551C41.436 14.4274 41.0586 15.3389 41.0586 16.2893C41.0586 17.2397 41.436 18.1512 42.1078 18.8235C42.7802 19.4953 43.6918 19.8727 44.6424 19.8727C45.5929 19.8726 46.5045 19.4952 47.1768 18.8233C48.2932 17.7069 48.5161 16.038 47.8514 14.6976L55.658 6.89137C56.9986 7.55603 58.6676 7.33318 59.7837 6.21686C61.1837 4.81776 61.1837 2.54854 59.784 1.14892L59.7837 1.14841Z" fill="white"/>
</g>
<g clip-path="url(#clip1_12_22)">
<path d="M0.850395 21.436H2.91329C2.96499 21.7535 2.99834 22.071 3.07005 22.3819C3.28018 23.3028 3.78715 24.0559 4.46088 24.7009C5.71163 25.8994 7.24088 26.5477 8.91521 26.9035C9.87245 27.1079 10.8414 27.1927 11.8169 27.1462C13.8848 27.0481 15.831 26.5411 17.527 25.306C18.5626 24.5529 19.3481 23.6037 19.6516 22.3254C19.72 22.0394 19.7417 21.7452 19.7884 21.4393H21.8679C21.8529 22.2389 21.7112 23.0019 21.4027 23.73C20.774 25.2212 19.7133 26.3482 18.3842 27.2393C17.0184 28.1552 15.5075 28.7171 13.8932 29.018C13.0077 29.1826 12.1138 29.274 11.2166 29.254C8.71009 29.2025 6.35368 28.6157 4.25243 27.1927C2.84659 26.2402 1.76261 25.0234 1.17392 23.4092C0.963796 22.834 0.8037 21.8765 0.848727 21.4343L0.850395 21.436Z" fill="white"/>
<path d="M2.90328 7.81957H0.83371C0.838713 7.27266 0.910422 6.7457 1.05718 6.22871C1.44241 4.87057 2.21787 3.75679 3.26683 2.83086C4.80441 1.47272 6.61883 0.681444 8.62002 0.277493C9.56559 0.0846609 10.5195 -0.0167424 11.4767 0.00154345C14.0649 0.0530763 16.4897 0.673133 18.631 2.1892C19.9084 3.09351 20.904 4.23222 21.4744 5.70839C21.7345 6.38164 21.8479 7.08149 21.8713 7.81292H19.7667C19.7467 7.2444 19.6366 6.69749 19.4031 6.17883C18.9228 5.11161 18.129 4.32033 17.1618 3.69528C15.9861 2.93393 14.687 2.49008 13.3062 2.264C12.2822 2.0961 11.2566 2.04956 10.2293 2.15096C8.40656 2.33216 6.69387 2.84416 5.19631 3.93466C4.21573 4.64947 3.44527 5.53384 3.1084 6.72575C3.01001 7.07152 2.97499 7.43557 2.90495 7.81625L2.90328 7.81957Z" fill="white"/>
<path d="M9.72401 9.86105C13.3428 12.4743 16.9433 15.0725 20.5588 17.6824C20.1469 18.2493 19.7383 18.8095 19.3247 19.3797C15.7076 16.7681 12.1104 14.1732 8.49161 11.56C8.90352 10.9915 9.31043 10.4329 9.72568 9.86105H9.72401Z" fill="white"/>
<path d="M14.2951 17.6941C13.8798 18.2659 13.4796 18.8178 13.0627 19.393C9.44719 16.7831 5.84503 14.1832 2.22787 11.5716L3.46195 9.87436C7.0741 12.4826 10.6729 15.0808 14.2951 17.6957V17.6941Z" fill="white"/>
</g>
<defs>
<clipPath id="clip0_12_22">
<rect width="29.0616" height="29.0616" fill="white" transform="translate(31.7721 0.0986938)"/>
</clipPath>
<clipPath id="clip1_12_22">
<rect width="21.0359" height="29.259" fill="white" transform="translate(0.83371)"/>
</clipPath>
</defs>
</svg>
